<?xml version="1.0" standalone="no"?>
<!DOCTYPE svg PUBLIC "-//W3C//DTD SVG 20010904//EN"
 "http://www.w3.org/TR/2001/REC-SVG-20010904/DTD/svg10.dtd">
<svg version="1.0" xmlns="http://www.w3.org/2000/svg"
 width="1200.000000pt" height="1200.000000pt" viewBox="0 0 1200.000000 1200.000000"
 preserveAspectRatio="xMidYMid meet">

<g transform="translate(0.000000,1200.000000) scale(0.100000,-0.100000)"
fill="#000000" stroke="none">
<path d="M5685 8881 c-522 -82 -971 -330 -1323 -731 -96 -110 -232 -316 -302
-458 l-54 -112 -1698 -2 -1698 -3 186 -232 186 -233 1445 0 1444 0 -6 -47 c-4
-27 -9 -56 -11 -65 -5 -17 -65 -18 -1025 -20 l-1021 -3 187 -232 186 -233 835
0 c659 0 835 -3 839 -12 2 -7 6 -37 10 -65 l6 -53 -431 -2 -430 -3 186 -232
186 -233 312 0 311 0 59 -117 c119 -239 244 -410 437 -598 179 -174 338 -286
554 -390 379 -183 796 -251 1225 -200 705 83 1344 545 1663 1203 l50 102 313
0 312 0 186 233 186 232 -431 3 -430 2 7 58 c3 31 8 60 11 65 2 4 379 7 838 7
l833 0 187 233 186 232 -1023 5 -1023 5 -7 40 c-4 22 -7 50 -7 63 l-1 22 1444
0 1444 0 186 233 186 232 -1700 5 -1700 5 -59 120 c-304 613 -878 1042 -1561
1166 -168 31 -518 36 -685 10z m550 -472 c536 -70 1025 -425 1270 -924 64
-130 125 -310 151 -450 29 -152 27 -450 -4 -604 -188 -936 -1083 -1528 -2011
-1329 -649 138 -1159 663 -1293 1329 -19 97 -22 145 -22 319 0 173 3 222 22
312 63 303 210 594 410 813 191 210 453 380 713 466 250 82 490 103 764 68z"/>
<path d="M6020 7233 c-142 -24 -294 -127 -364 -246 -221 -377 92 -844 522
-779 75 12 188 59 239 99 l22 18 -49 79 c-27 43 -51 80 -54 83 -2 2 -23 -9
-46 -26 -127 -92 -304 -78 -415 34 -67 66 -90 125 -90 225 0 70 4 94 24 135
90 182 319 241 481 124 23 -17 44 -28 46 -26 3 3 27 40 54 83 l49 79 -22 17
c-101 79 -270 122 -397 101z"/>
<path d="M4570 3745 l0 -114 -32 19 c-52 29 -99 34 -163 15 -104 -30 -185
-139 -185 -250 0 -57 30 -135 67 -176 88 -97 209 -114 313 -44 l50 34 26 -35
c53 -69 54 -66 54 316 l0 350 -65 0 -65 0 0 -115z m-69 -210 c118 -62 73 -255
-59 -255 -75 0 -129 70 -119 156 10 91 98 140 178 99z"/>
<path d="M3269 3826 c-102 -27 -181 -95 -228 -196 -20 -44 -25 -70 -26 -135 0
-71 4 -88 33 -147 38 -77 92 -130 171 -166 82 -38 192 -37 278 2 35 16 67 34
72 40 5 7 -4 30 -26 63 l-34 53 -40 -27 c-47 -31 -128 -41 -184 -23 -153 51
-195 259 -72 367 71 62 180 70 256 20 l41 -27 30 47 c16 27 30 53 30 60 0 30
-143 84 -220 82 -19 0 -56 -6 -81 -13z"/>
<path d="M5589 3826 c-102 -27 -181 -95 -228 -196 -20 -44 -25 -70 -26 -135 0
-71 4 -88 33 -147 38 -77 92 -130 171 -166 82 -38 192 -37 278 2 35 16 67 34
72 40 5 7 -4 30 -26 63 l-34 53 -40 -27 c-47 -31 -128 -41 -184 -23 -84 28
-145 114 -145 205 0 91 61 177 145 205 56 19 137 8 184 -23 l41 -27 30 47 c16
27 30 53 30 60 0 30 -143 84 -220 82 -19 0 -56 -6 -81 -13z"/>
<path d="M3796 3664 c-96 -31 -176 -143 -176 -249 0 -55 28 -129 66 -173 54
-63 105 -86 189 -86 84 0 135 23 189 86 38 44 66 118 66 173 0 92 -62 195
-141 236 -53 26 -133 32 -193 13z m134 -127 c13 -7 35 -28 48 -47 20 -29 23
-44 19 -89 -3 -47 -9 -59 -40 -88 -91 -83 -219 -6 -204 123 10 89 99 140 177
101z"/>
<path d="M4960 3660 c-97 -33 -170 -138 -170 -245 0 -57 30 -135 67 -176 56
-62 105 -83 188 -83 79 0 129 20 179 73 l30 31 -45 46 c-42 43 -45 44 -59 27
-27 -33 -64 -53 -97 -53 -18 0 -33 3 -33 6 0 4 126 158 219 267 15 17 13 21
-25 57 -42 39 -121 70 -173 70 -14 -1 -51 -9 -81 -20z m118 -118 c-13 -29
-144 -190 -151 -185 -5 3 -7 32 -5 64 4 61 29 101 73 119 25 11 88 12 83 2z"/>
<path d="M6116 3664 c-96 -31 -176 -143 -176 -249 0 -55 28 -129 66 -173 54
-63 105 -86 189 -86 84 0 135 23 189 86 38 44 66 118 66 173 0 92 -62 195
-141 236 -53 26 -133 32 -193 13z m134 -127 c13 -7 35 -28 48 -47 20 -29 23
-44 19 -89 -3 -47 -9 -59 -40 -88 -91 -83 -219 -6 -204 123 10 89 99 140 177
101z"/>
<path d="M8190 3660 c-97 -33 -170 -138 -170 -245 0 -57 30 -135 67 -176 56
-62 105 -83 188 -83 79 0 129 20 179 73 l30 31 -45 46 c-42 43 -45 44 -59 27
-27 -33 -64 -53 -97 -53 -18 0 -33 3 -33 6 0 4 126 158 219 267 15 17 13 21
-25 57 -42 39 -121 70 -173 70 -14 -1 -51 -9 -81 -20z m118 -118 c-13 -29
-144 -190 -151 -185 -5 3 -7 32 -5 64 4 61 29 101 73 119 25 11 88 12 83 2z"/>
<path d="M6520 3507 c0 -182 12 -232 66 -288 45 -46 119 -74 176 -66 22 3 62
19 88 35 l48 30 21 -29 c12 -16 28 -29 36 -29 13 0 15 37 15 250 l0 250 -65 0
-65 0 0 -150 c0 -115 -4 -158 -15 -180 -30 -59 -98 -68 -146 -21 l-29 29 0
161 0 161 -65 0 -65 0 0 -153z"/>
<path d="M7100 3410 l0 -250 65 0 65 0 0 156 0 156 29 29 c27 27 35 29 105 29
l76 0 0 66 0 66 -88 -4 c-71 -3 -97 -9 -135 -30 l-47 -26 -21 29 c-11 16 -27
29 -35 29 -12 0 -14 -40 -14 -250z"/>
<path d="M7615 3653 c-57 -14 -115 -92 -115 -153 0 -41 35 -105 71 -131 29
-21 49 -25 139 -29 97 -5 105 -7 105 -25 0 -19 -8 -20 -157 -23 l-158 -3 0
-64 0 -65 158 0 c144 0 162 2 202 23 82 41 113 148 63 216 -42 55 -66 65 -181
71 -106 5 -107 5 -107 30 l0 25 138 3 c152 3 139 -4 139 77 0 19 0 40 -1 45
-1 10 -257 12 -296 3z"/>
<path d="M8665 3653 c-57 -14 -115 -92 -115 -153 0 -41 35 -105 71 -131 29
-21 49 -25 139 -29 97 -5 105 -7 105 -25 0 -19 -8 -20 -157 -23 l-158 -3 0
-64 0 -65 158 0 c144 0 162 2 202 23 82 41 113 148 63 216 -42 55 -66 65 -181
71 -106 5 -107 5 -107 30 l0 25 138 3 c152 3 139 -4 139 77 0 19 0 40 -1 45
-1 10 -257 12 -296 3z"/>
</g>
</svg>
