<svg width="1438" height="767" viewBox="0 0 1438 767" fill="none" xmlns="http://www.w3.org/2000/svg">
<path d="M676.667 2.23251C607.067 13.1658 547.2 46.2325 500.267 99.6992C487.467 114.366 469.333 141.833 460 160.766L452.8 175.699L226.4 175.966L0 176.366L24.8 207.299L49.6 238.366H242.267H434.8L434 244.633C433.467 248.233 432.8 252.099 432.533 253.299C431.867 255.566 423.867 255.699 295.867 255.966L159.733 256.366L184.667 287.299L209.467 318.366H320.8C408.667 318.366 432.133 318.766 432.667 319.966C432.933 320.899 433.467 324.899 434 328.633L434.8 335.699L377.333 335.966L320 336.366L344.8 367.299L369.6 398.366H411.2H452.667L460.533 413.966C476.4 445.833 493.067 468.633 518.8 493.699C542.667 516.899 563.867 531.833 592.667 545.699C643.2 570.099 698.8 579.166 756 572.366C850 561.299 935.2 499.699 977.733 411.966L984.4 398.366H1026.13H1067.73L1092.53 367.299L1117.33 336.366L1059.87 335.966L1002.53 335.699L1003.47 327.966C1003.87 323.833 1004.53 319.966 1004.93 319.299C1005.2 318.766 1055.47 318.366 1116.67 318.366H1227.73L1252.67 287.299L1277.47 256.366L1141.07 255.699L1004.67 255.033L1003.73 249.699C1003.2 246.766 1002.8 243.033 1002.8 241.299L1002.67 238.366H1195.2H1387.73L1412.53 207.299L1437.33 176.366L1210.67 175.699L984 175.033L976.133 159.033C935.6 77.2992 859.067 20.0992 768 3.56584C745.6 -0.567494 698.933 -1.23416 676.667 2.23251ZM750 65.1659C821.467 74.4992 886.667 121.833 919.333 188.366C927.867 205.699 936 229.699 939.467 248.366C943.333 268.633 943.067 308.366 938.933 328.899C913.867 453.699 794.533 532.633 670.8 506.099C584.267 487.699 516.267 417.699 498.4 328.899C495.867 315.966 495.467 309.566 495.467 286.366C495.467 263.299 495.867 256.766 498.4 244.766C506.8 204.366 526.4 165.566 553.067 136.366C578.533 108.366 613.467 85.6992 648.133 74.2325C681.467 63.2992 713.467 60.4992 750 65.1659Z" fill="#EE0E51"/>
<path d="M721.333 221.966C702.4 225.166 682.133 238.899 672.8 254.766C643.333 305.033 685.067 367.299 742.4 358.633C752.4 357.033 767.467 350.766 774.267 345.433L777.2 343.033L770.667 332.499C767.067 326.766 763.867 321.833 763.467 321.433C763.2 321.166 760.4 322.633 757.333 324.899C740.4 337.166 716.8 335.299 702 320.366C693.067 311.566 690 303.699 690 290.366C690 281.033 690.533 277.833 693.2 272.366C705.2 248.099 735.733 240.233 757.333 255.833C760.4 258.099 763.2 259.566 763.467 259.299C763.867 258.899 767.067 253.966 770.667 248.233L777.2 237.699L774.267 235.433C760.8 224.899 738.267 219.166 721.333 221.966Z" fill="#EE0E51"/>
<path d="M528 687.033V702.233L523.733 699.699C516.8 695.833 510.533 695.166 502 697.699C488.133 701.699 477.333 716.233 477.333 731.033C477.333 738.633 481.333 749.033 486.267 754.499C498 767.433 514.133 769.699 528 760.366L534.667 755.833L538.133 760.499C545.2 769.699 545.333 769.299 545.333 718.366V671.699H536.667H528V687.033ZM518.8 715.033C534.533 723.299 528.533 749.033 510.933 749.033C500.933 749.033 493.733 739.699 495.067 728.233C496.4 716.099 508.133 709.566 518.8 715.033Z" fill="#EE0E51"/>
<path d="M354.533 676.233C340.933 679.833 330.4 688.899 324.133 702.366C321.467 708.233 320.8 711.699 320.667 720.366C320.667 729.833 321.2 732.099 325.067 739.966C330.133 750.233 337.333 757.299 347.867 762.099C358.8 767.166 373.467 767.033 384.933 761.833C389.6 759.699 393.867 757.299 394.533 756.499C395.2 755.566 394 752.499 391.067 748.099L386.533 741.033L381.2 744.633C374.933 748.766 364.133 750.099 356.667 747.699C336.267 740.899 330.667 713.166 347.067 698.766C356.533 690.499 371.067 689.433 381.2 696.099L386.667 699.699L390.667 693.433C392.8 689.833 394.667 686.366 394.667 685.433C394.667 681.433 375.6 674.233 365.333 674.499C362.8 674.499 357.867 675.299 354.533 676.233Z" fill="#EE0E51"/>
<path d="M663.867 676.233C650.267 679.833 639.733 688.899 633.467 702.366C630.8 708.233 630.133 711.699 630 720.366C630 729.833 630.533 732.099 634.4 739.966C639.467 750.233 646.667 757.299 657.2 762.099C668.133 767.166 682.8 767.033 694.267 761.833C698.933 759.699 703.2 757.299 703.867 756.499C704.533 755.566 703.333 752.499 700.4 748.099L695.867 741.033L690.533 744.633C684.267 748.766 673.467 750.099 666 747.699C654.8 743.966 646.667 732.499 646.667 720.366C646.667 708.233 654.8 696.766 666 693.033C673.467 690.499 684.267 691.966 690.533 696.099L696 699.699L700 693.433C702.133 689.833 704 686.366 704 685.433C704 681.433 684.933 674.233 674.667 674.499C672.133 674.499 667.2 675.299 663.867 676.233Z" fill="#EE0E51"/>
<path d="M424.8 697.833C412 701.966 401.333 716.899 401.333 731.033C401.333 738.366 405.067 748.233 410.133 754.099C417.333 762.499 424.133 765.566 435.333 765.566C446.533 765.566 453.333 762.499 460.533 754.099C465.6 748.233 469.333 738.366 469.333 731.033C469.333 718.766 461.067 705.033 450.533 699.566C443.467 696.099 432.8 695.299 424.8 697.833ZM442.667 714.766C444.4 715.699 447.333 718.499 449.067 721.033C451.733 724.899 452.133 726.899 451.6 732.899C451.2 739.166 450.4 740.766 446.267 744.633C434.133 755.699 417.067 745.433 419.067 728.233C420.4 716.366 432.267 709.566 442.667 714.766Z" fill="#EE0E51"/>
<path d="M580 698.366C567.067 702.766 557.333 716.766 557.333 731.033C557.333 738.633 561.333 749.033 566.267 754.499C573.733 762.766 580.267 765.566 591.333 765.566C601.867 765.566 608.533 762.899 615.2 755.833L619.2 751.699L613.2 745.566C607.6 739.833 607.2 739.699 605.333 741.966C601.733 746.366 596.8 749.033 592.4 749.033C590 749.033 588 748.633 588 748.233C588 747.699 604.8 727.166 617.2 712.633C619.2 710.366 618.933 709.833 613.867 705.033C608.267 699.833 597.733 695.699 590.8 695.699C588.933 695.833 584 696.899 580 698.366ZM595.733 714.099C594 717.966 576.533 739.433 575.6 738.766C574.933 738.366 574.667 734.499 574.933 730.233C575.467 722.099 578.8 716.766 584.667 714.366C588 712.899 596.4 712.766 595.733 714.099Z" fill="#EE0E51"/>
<path d="M734.133 697.833C721.333 701.966 710.667 716.899 710.667 731.033C710.667 738.366 714.4 748.233 719.467 754.099C726.667 762.499 733.467 765.566 744.667 765.566C755.867 765.566 762.667 762.499 769.867 754.099C774.933 748.233 778.667 738.366 778.667 731.033C778.667 718.766 770.4 705.033 759.867 699.566C752.8 696.099 742.133 695.299 734.133 697.833ZM752 714.766C753.733 715.699 756.667 718.499 758.4 721.033C761.067 724.899 761.467 726.899 760.933 732.899C760.533 739.166 759.733 740.766 755.6 744.633C743.467 755.699 726.4 745.433 728.4 728.233C729.733 716.366 741.6 709.566 752 714.766Z" fill="#EE0E51"/>
<path d="M1010.67 698.366C997.733 702.766 988 716.766 988 731.033C988 738.633 992 749.033 996.933 754.499C1004.4 762.766 1010.93 765.566 1022 765.566C1032.53 765.566 1039.2 762.899 1045.87 755.833L1049.87 751.699L1043.87 745.566C1038.27 739.833 1037.87 739.699 1036 741.966C1032.4 746.366 1027.47 749.033 1023.07 749.033C1020.67 749.033 1018.67 748.633 1018.67 748.233C1018.67 747.699 1035.47 727.166 1047.87 712.633C1049.87 710.366 1049.6 709.833 1044.53 705.033C1038.93 699.833 1028.4 695.699 1021.47 695.699C1019.6 695.833 1014.67 696.899 1010.67 698.366ZM1026.4 714.099C1024.67 717.966 1007.2 739.433 1006.27 738.766C1005.6 738.366 1005.33 734.499 1005.6 730.233C1006.13 722.099 1009.47 716.766 1015.33 714.366C1018.67 712.899 1027.07 712.766 1026.4 714.099Z" fill="#EE0E51"/>
<path d="M788 718.766C788 743.033 789.6 749.699 796.8 757.166C802.8 763.299 812.667 767.033 820.267 765.966C823.2 765.566 828.533 763.433 832 761.299L838.4 757.299L841.2 761.166C842.8 763.299 844.933 765.033 846 765.033C847.733 765.033 848 760.099 848 731.699V698.366H839.333H830.667V718.366C830.667 733.699 830.133 739.433 828.667 742.366C824.667 750.233 815.6 751.433 809.2 745.166L805.333 741.299V719.833V698.366H796.667H788V718.766Z" fill="#EE0E51"/>
<path d="M865.333 731.699V765.033H874H882.667V744.233V723.433L886.533 719.566C890.133 715.966 891.2 715.699 900.533 715.699H910.667V706.899V698.099L898.933 698.633C889.467 699.033 886 699.833 880.933 702.633L874.667 706.099L871.867 702.233C870.4 700.099 868.267 698.366 867.2 698.366C865.6 698.366 865.333 703.699 865.333 731.699Z" fill="#EE0E51"/>
<path d="M934 699.299C926.4 701.166 918.667 711.566 918.667 719.699C918.667 725.166 923.333 733.699 928.133 737.166C932 739.966 934.667 740.499 946.667 741.033C959.6 741.699 960.667 741.966 960.667 744.366C960.667 746.899 959.6 747.033 939.733 747.433L918.667 747.833V756.366V765.033H939.733C958.933 765.033 961.333 764.766 966.667 761.966C977.6 756.499 981.733 742.233 975.067 733.166C969.467 725.833 966.267 724.499 950.933 723.699C936.8 723.033 936.667 723.033 936.667 719.699V716.366L955.067 715.966C975.333 715.566 973.6 716.499 973.6 705.699C973.6 703.166 973.6 700.366 973.467 699.699C973.333 698.366 939.2 698.099 934 699.299Z" fill="#EE0E51"/>
<path d="M1074 699.299C1066.4 701.166 1058.67 711.566 1058.67 719.699C1058.67 725.166 1063.33 733.699 1068.13 737.166C1072 739.966 1074.67 740.499 1086.67 741.033C1099.6 741.699 1100.67 741.966 1100.67 744.366C1100.67 746.899 1099.6 747.033 1079.73 747.433L1058.67 747.833V756.366V765.033H1079.73C1098.93 765.033 1101.33 764.766 1106.67 761.966C1117.6 756.499 1121.73 742.233 1115.07 733.166C1109.47 725.833 1106.27 724.499 1090.93 723.699C1076.8 723.033 1076.67 723.033 1076.67 719.699V716.366L1095.07 715.966C1115.33 715.566 1113.6 716.499 1113.6 705.699C1113.6 703.166 1113.6 700.366 1113.47 699.699C1113.33 698.366 1079.2 698.099 1074 699.299Z" fill="#EE0E51"/>
</svg>
